<svg height="128px" id="Layer_1" style="enable-background:new 0 0 128 128;" version="1.1"
     viewBox="0 0 128 128" width="128px" xml:space="preserve" xmlns="http://www.w3.org/2000/svg"
     xmlns:xlink="http://www.w3.org/1999/xlink"><path d="M82.632,67.672  c-9.837,0-13.99,5.402-13.99,10.253c0,3.874-0.272,19.254-0.272,23.135c0,12.74-8.314,18.144-20.09,18.144h-2.911v-7.62h2.494  c8.178,0,11.366-4.012,11.366-11.49c0-3.187,0.13-17.042,0.13-20.786c-0.141-8.866,6.513-13.299,12.749-14.957v-0.282  c-6.236-1.522-12.89-6.232-12.749-15.098c0-3.739-0.13-16.759-0.13-20.081c0-7.76-3.606-12.473-11.366-12.473h-2.494V8.797h2.911  c11.499,0,20.09,4.986,20.09,18.979c0,3.739,0.272,18.843,0.272,22.581c0,4.293,4.153,10.248,13.99,10.248V67.672z" style="fill:#569DA1;stroke-width:2.6805;stroke-miterlimit:10;"/>
</svg>
